<?xml version="1.0" encoding="UTF-8" standalone="no"?>
<!-- Created with Inkscape (http://www.inkscape.org/) -->

<svg
   width="27mm"
   height="27mm"
   viewBox="0 0 27 27"
   version="1.1"
   id="svg5"
   xmlns="http://www.w3.org/2000/svg"
   xmlns:svg="http://www.w3.org/2000/svg">
  <defs
     id="defs2" />
  <g
     id="layer1"
     transform="translate(-47.607359,-84.862188)">
    <path
       style="fill:#ffffff;fill-opacity:1;stroke:#000000;stroke-width:5;stroke-miterlimit:4;stroke-dasharray:none;stroke-opacity:1;paint-order:stroke fill markers"
       d="m 55.683402,107.29246 c -0.291042,-0.1308 -1.243542,-0.96683 -2.116667,-1.85783 l -1.587499,-1.62 v -1.45471 -1.45472 l 3.45952,-3.431706 3.459521,-3.43171 h 1.388796 1.388795 l 1.36706,1.30409 1.367059,1.30408 -0.639101,0.68029 c -0.351505,0.37416 -0.774664,0.68029 -0.940354,0.68029 -0.165689,0 -0.64346,-0.35718 -1.061714,-0.79375 l -0.76046,-0.79375 h -0.673586 -0.673585 l -2.716496,2.70726 -2.716497,2.707246 v 0.54496 0.54495 l 1.134494,1.11342 1.134494,1.11342 h 0.531601 0.531601 l 1.002575,-1.02673 1.002576,-1.02673 0.837058,0.27309 c 0.460382,0.15021 1.009302,0.31983 1.219821,0.37694 l 0.382762,0.10384 -1.736666,1.73667 -1.736667,1.73666 -1.159637,0.10113 -1.159637,0.10112 z m 3.532419,-6.04609 -1.32303,-1.262084 0.568154,-0.722292 c 0.312486,-0.39726 0.692624,-0.72229 0.844752,-0.72229 0.152128,0 0.683411,0.35719 1.180628,0.79375 l 0.904031,0.793756 h 0.590834 0.590833 l 2.707249,-2.716506 2.70725,-2.71649 v -0.51464 -0.51463 l -1.11342,-1.13449 -1.11342,-1.1345 h -0.55267 -0.552675 l -1.002576,1.02673 -1.002575,1.02673 -0.837059,-0.27309 c -0.460382,-0.1502 -0.990036,-0.31243 -1.177009,-0.36051 l -0.339951,-0.0874 0.413453,-0.63101 c 0.2274,-0.34705 1.032351,-1.15287 1.788781,-1.7907 l 1.375327,-1.15969 h 1.329294 1.3293 l 0.94298,0.72147 c 0.51863,0.39681 1.35207,1.23025 1.85208,1.85208 l 0.9091,1.13061 v 1.39694 1.39694 l -3.45952,3.43171 -3.459518,3.431706 h -1.388796 -1.388796 z"
       id="path1192" />
  </g>
</svg>
